<svg width="17" height="17" viewBox="0 0 17 17" fill="none" xmlns="http://www.w3.org/2000/svg">
<path fill-rule="evenodd" clip-rule="evenodd" d="M11.5797 10.2L16.7043 15.3246C17.0986 15.7188 17.0986 16.3101 16.7043 16.7043C16.5072 16.9014 16.2609 17 16.0145 17C15.7681 17 15.5217 16.9014 15.3246 16.7043L10.2 11.5797C9.11594 12.3681 7.83478 12.8116 6.4058 12.8116C2.85797 12.8116 0 9.95362 0 6.4058C0 2.85797 2.85797 0 6.4058 0C9.95362 0 12.8116 2.85797 12.8116 6.4058C12.8116 7.83478 12.3681 9.16522 11.5797 10.2ZM1.97101 6.4058C1.97101 8.86957 3.94203 10.8406 6.4058 10.8406C8.86957 10.8406 10.8406 8.86957 10.8406 6.4058C10.8406 3.94203 8.86957 1.97101 6.4058 1.97101C3.94203 1.97101 1.97101 3.94203 1.97101 6.4058Z" fill="#DAE0E4"/>
</svg>
