<svg width="118" height="25" viewBox="0 0 118 25" fill="none" xmlns="http://www.w3.org/2000/svg">
<path fill-rule="evenodd" clip-rule="evenodd" d="M89.866 5.44336H79.6054C79.4958 5.44336 79.4074 5.53343 79.4074 5.6444V7.66806C79.4074 7.77879 79.4958 7.86886 79.6054 7.86886H86.5137L79.2142 16.8231C79.1851 16.8589 79.1689 16.9043 79.1689 16.9509V18.6402C79.1689 18.7512 79.2578 18.841 79.3671 18.841H89.866C89.9756 18.841 90.0642 18.7512 90.0642 18.6402V16.6168C90.0642 16.5058 89.9756 16.416 89.866 16.416H82.7197L90.0189 7.46149C90.0483 7.4257 90.0642 7.3803 90.0642 7.3337V5.6444C90.0642 5.53343 89.9756 5.44336 89.866 5.44336Z" fill="white"/>
<path fill-rule="evenodd" clip-rule="evenodd" d="M102.327 16.3975H95.1773V13.3088H101.411C101.521 13.3088 101.609 13.219 101.609 13.1078V11.0656C101.609 10.9549 101.521 10.8648 101.411 10.8648H95.1773V7.88736H102.235C102.345 7.88736 102.433 7.79752 102.433 7.68655V5.64441C102.433 5.53368 102.345 5.4436 102.235 5.4436H92.7258C92.6162 5.4436 92.5273 5.53368 92.5273 5.64441V18.6405C92.5273 18.7514 92.6162 18.8413 92.7258 18.8413H102.327C102.436 18.8413 102.525 18.7514 102.525 18.6405V16.5983C102.525 16.4873 102.436 16.3975 102.327 16.3975Z" fill="white"/>
<mask id="mask0" mask-type="alpha" maskUnits="userSpaceOnUse" x="105" y="5" width="12" height="14">
<path fill-rule="evenodd" clip-rule="evenodd" d="M116.851 18.841V5.44336L105.278 5.44336V18.841H116.851Z" fill="white"/>
</mask>
<g mask="url(#mask0)">
<path fill-rule="evenodd" clip-rule="evenodd" d="M116.653 5.44336H114.436C114.327 5.44336 114.238 5.53343 114.238 5.6444V14.0433L107.722 5.52118C107.684 5.47218 107.627 5.44336 107.565 5.44336H105.476C105.367 5.44336 105.278 5.53343 105.278 5.6444V18.6402C105.278 18.7512 105.367 18.841 105.476 18.841H107.693C107.803 18.841 107.892 18.7512 107.892 18.6402V9.98138L114.61 18.7634C114.647 18.8124 114.705 18.841 114.766 18.841H116.653C116.763 18.841 116.851 18.7512 116.851 18.6402V5.6444C116.851 5.53343 116.763 5.44336 116.653 5.44336Z" fill="white"/>
</g>
<mask id="mask1" mask-type="alpha" maskUnits="userSpaceOnUse" x="0" y="0" width="117" height="25">
<path fill-rule="evenodd" clip-rule="evenodd" d="M0 24.4426H116.851V0H0V24.4426Z" fill="white"/>
</mask>
<g mask="url(#mask1)">
<path fill-rule="evenodd" clip-rule="evenodd" d="M2.24794 22.1835H73.3474V2.25928H2.24794V22.1835ZM75.2758 0H0.31978C0.143415 0 0 0.144598 0 0.322103V24.1205C0 24.298 0.143415 24.4426 0.31978 24.4426H75.2758C75.4519 24.4426 75.5951 24.298 75.5951 24.1205V0.322103C75.5951 0.144598 75.4519 0 75.2758 0Z" fill="white"/>
<path fill-rule="evenodd" clip-rule="evenodd" d="M30.1946 5.52246H20.6484C20.5391 5.52246 20.4502 5.61253 20.4502 5.72326V18.7196C20.4502 18.8303 20.5391 18.9201 20.6484 18.9201H22.902C23.0113 18.9201 23.1002 18.8303 23.1002 18.7196V13.6288H29.3699C29.4792 13.6288 29.5681 13.539 29.5681 13.4283V11.3489C29.5681 11.2379 29.4792 11.1481 29.3699 11.1481H23.1002V8.00345H30.1946C30.3039 8.00345 30.3928 7.91361 30.3928 7.80264V5.72326C30.3928 5.61253 30.3039 5.52246 30.1946 5.52246Z" fill="white"/>
<path fill-rule="evenodd" clip-rule="evenodd" d="M42.8469 5.52246H33.3007C33.1914 5.52246 33.1025 5.61253 33.1025 5.72326V18.7196C33.1025 18.8303 33.1914 18.9201 33.3007 18.9201H35.5543C35.6641 18.9201 35.7525 18.8303 35.7525 18.7196V13.6288H42.0222C42.1315 13.6288 42.2204 13.539 42.2204 13.4283V11.3489C42.2204 11.2379 42.1315 11.1481 42.0222 11.1481H35.7525V8.00345H42.8469C42.9562 8.00345 43.0451 7.91361 43.0451 7.80264V5.72326C43.0451 5.61253 42.9562 5.52246 42.8469 5.52246Z" fill="white"/>
<path fill-rule="evenodd" clip-rule="evenodd" d="M55.6322 16.4766H48.4827V13.3877H54.716C54.8257 13.3877 54.9141 13.2979 54.9141 13.1871V11.1447C54.9141 11.034 54.8257 10.9442 54.716 10.9442H48.4827V7.96646H55.5404C55.6502 7.96646 55.7386 7.87639 55.7386 7.76566V5.72327C55.7386 5.61278 55.6502 5.52271 55.5404 5.52271H46.0312C45.9214 5.52271 45.833 5.61278 45.833 5.72327V18.7198C45.833 18.8305 45.9214 18.9204 46.0312 18.9204H55.6322C55.7419 18.9204 55.8303 18.8305 55.8303 18.7198V16.6774C55.8303 16.5664 55.7419 16.4766 55.6322 16.4766Z" fill="white"/>
<path fill-rule="evenodd" clip-rule="evenodd" d="M61.1549 8.00345H64.236C65.3575 8.00345 66.6949 8.34573 66.6949 9.97498C66.6949 11.2024 65.7598 11.965 64.2548 11.965H61.1549V8.00345ZM66.4451 13.9108C68.3156 13.2875 69.3814 11.8194 69.3814 9.84479C69.3814 7.17885 67.4803 5.52246 64.4193 5.52246H58.7028C58.5938 5.52246 58.5049 5.61253 58.5049 5.72326V18.7196C58.5049 18.8303 58.5938 18.9201 58.7028 18.9201H60.9567C61.066 18.9201 61.1549 18.8303 61.1549 18.7196V14.39H63.6754L66.7682 18.8353C66.8052 18.8884 66.8656 18.9201 66.9294 18.9201H69.5867C69.5879 18.9204 69.5893 18.9201 69.5905 18.9201C69.7 18.9201 69.7887 18.8303 69.7887 18.7196C69.7887 18.6629 69.7654 18.6119 69.7287 18.5754L66.4451 13.9108Z" fill="white"/>
<path fill-rule="evenodd" clip-rule="evenodd" d="M11.913 16.5965C9.63235 16.5965 7.91231 14.6874 7.91231 12.1557C7.91231 9.64519 9.61694 7.75221 11.8779 7.75221C14.1586 7.75221 15.8786 9.66128 15.8786 12.193C15.8786 14.7032 14.1737 16.5965 11.913 16.5965ZM11.9275 5.2998C8.16738 5.2998 5.33203 8.28328 5.33203 12.2398C5.33203 16.1752 8.15268 19.143 11.8921 19.143C15.6525 19.143 18.4878 16.1593 18.4878 12.2026C18.4878 8.26743 15.6674 5.2998 11.9275 5.2998Z" fill="white"/>
</g>
</svg>
